<svg xmlns="http://www.w3.org/2000/svg" viewBox="0 0 100 100">
  <!-- Background circle -->
  <circle cx="50" cy="50" r="48" fill="#FEF3E2" stroke="#D4A574" stroke-width="2"/>
  <!-- Diary book body -->
  <rect x="22" y="20" width="46" height="56" rx="4" ry="4" fill="#D4A574"/>
  <!-- Diary book spine -->
  <rect x="22" y="20" width="8" height="56" rx="2" ry="2" fill="#5D4E37"/>
  <!-- Diary book page lines -->
  <line x1="36" y1="35" x2="60" y2="35" stroke="#FFF8F0" stroke-width="2" stroke-linecap="round"/>
  <line x1="36" y1="43" x2="60" y2="43" stroke="#FFF8F0" stroke-width="2" stroke-linecap="round"/>
  <line x1="36" y1="51" x2="52" y2="51" stroke="#FFF8F0" stroke-width="2" stroke-linecap="round"/>
  <!-- Heart motif -->
  <path d="M50 68 C50 68 40 60 40 54 C40 50.7 42.7 48 46 48 C47.7 48 49.2 48.8 50 50 C50.8 48.8 52.3 48 54 48 C57.3 48 60 50.7 60 54 C60 60 50 68 50 68Z" fill="#E8A87C"/>
</svg>
